<svg width="16" height="17" viewBox="0 0 16 17" fill="none" xmlns="http://www.w3.org/2000/svg">
<path fill-rule="evenodd" clip-rule="evenodd" d="M2.28413 5.04327C3.48868 2.97861 5.64097 1.72256 7.9588 1.73229C10.7003 1.75335 13.145 3.53806 14.1036 6.21854C15.0622 8.8993 14.3353 11.9193 12.2767 13.8092C10.2183 15.6988 7.25583 16.0666 4.83012 14.7336L4.79989 14.7225C4.79517 14.7197 4.79441 14.7172 4.79339 14.7139L4.34289 14.4475C4.25114 14.4082 4.14946 14.4019 4.08738 14.4183C3.61908 14.5942 3.14046 14.7387 2.65447 14.8509L2.56538 14.8621C2.03038 14.8745 1.76082 14.5117 1.76082 13.9837L1.77372 13.8706C1.89521 13.3455 2.04747 12.8287 2.22076 12.3501C2.24764 12.2595 2.23869 12.1615 2.1923 12.0706L2.07097 11.8234C0.998548 9.68053 1.07942 7.1082 2.28413 5.04327ZM7.95245 2.69418L7.76707 2.69721C5.84465 2.75469 4.07469 3.8231 3.07048 5.54436C2.03402 7.3209 1.96445 9.53378 2.88875 11.3807L3.00817 11.6241C3.167 11.9348 3.20023 12.2988 3.09156 12.6622C2.92269 13.131 2.78154 13.6101 2.66891 14.0969L2.73103 13.8433L2.99179 13.7721C3.17066 13.7206 3.35041 13.6637 3.53302 13.6006L3.80933 13.5014C4.1012 13.4174 4.41153 13.4369 4.71723 13.5686C4.7814 13.6009 4.86103 13.6458 4.9614 13.7051L5.24015 13.8722L5.25216 13.8757L5.24402 13.8745L5.43394 13.974C7.43092 14.9817 9.81001 14.6854 11.5235 13.2151L11.6688 13.0861C13.4402 11.4599 14.0656 8.86179 13.2408 6.55552C12.416 4.24899 10.3119 2.71293 7.95245 2.69418Z" fill="#FD8087"/>
</svg>
