<svg width="22" height="24" viewBox="0 0 22 24" fill="none" xmlns="http://www.w3.org/2000/svg">
<path fill-rule="evenodd" clip-rule="evenodd" d="M6.49398 23.6667C6.01332 23.6667 5.55715 23.6293 5.12782 23.5558L4.87348 23.508C2.10732 22.9328 0.499649 20.8142 0.499649 17.5895V6.41051C0.499649 6.02084 0.522982 5.64751 0.569649 5.29051C0.976816 2.15801 3.12932 0.333344 6.49398 0.333344H15.5065C19.2351 0.333344 21.4646 2.57334 21.4996 6.32068V6.41051V17.5895C21.4996 21.3893 19.2643 23.6667 15.5065 23.6667H6.49398ZM6.49398 2.03318C3.62865 2.03318 2.17615 3.50668 2.17615 6.41051V17.5895C2.17615 20.4933 3.62865 21.9668 6.49398 21.9668H15.496C18.3601 21.9668 19.8033 20.4933 19.8033 17.5895V6.41051C19.8033 3.50668 18.3601 2.03318 15.496 2.03318H6.49398ZM16.0233 16.9397C16.0233 16.473 15.6511 16.095 15.1915 16.095H6.77865C6.31898 16.095 5.94565 16.473 5.94565 16.9397C5.94565 17.4063 6.31898 17.7843 6.77865 17.7843H15.1915C15.6511 17.7843 16.0233 17.4063 16.0233 16.9397ZM15.1915 11.1495C15.5123 11.1145 15.8261 11.2685 15.9976 11.545C16.1691 11.8238 16.1691 12.1762 15.9976 12.455C15.8261 12.7315 15.5123 12.8855 15.1915 12.8505H6.77865C6.35165 12.8015 6.02848 12.4363 6.02848 12C6.02848 11.5637 6.35165 11.1973 6.77865 11.1495H15.1915ZM10.7395 7.06618C10.7395 6.62984 10.4163 6.26351 9.98932 6.21568H6.78915C6.36098 6.26351 6.03782 6.62984 6.03782 7.06618C6.03782 7.50134 6.36098 7.86768 6.78915 7.91551H9.98932C10.4163 7.86768 10.7395 7.50134 10.7395 7.06618Z" fill="#242424"/>
</svg>
