<svg width="28" height="28" viewBox="0 0 28 28" fill="none" xmlns="http://www.w3.org/2000/svg">
<path fill-rule="evenodd" clip-rule="evenodd" d="M19.057 2.33356H8.94321C4.97938 2.33356 2.33405 5.17159 2.33405 9.23556V18.7649C2.33405 22.8327 4.97231 25.6669 8.94321 25.6669H19.0559C23.0279 25.6669 25.6674 22.8327 25.6674 18.7649V9.23556C25.6674 5.16798 23.0281 2.33356 19.057 2.33356ZM8.94321 4.08356H19.057C22.0326 4.08356 23.9174 6.10768 23.9174 9.23556V18.7649C23.9174 21.8929 22.0325 23.9169 19.0559 23.9169H8.94321C5.96793 23.9169 4.08405 21.8931 4.08405 18.7649V9.23556C4.08405 6.11166 5.97444 4.08356 8.94321 4.08356ZM13.9999 8.69667C14.4831 8.69667 14.8749 9.08842 14.8749 9.57167C14.8749 10.0147 14.5457 10.3807 14.1186 10.4387L13.9882 10.4467C13.505 10.4467 13.1132 10.0549 13.1132 9.57167C13.1132 9.1287 13.4424 8.7626 13.8695 8.70466L13.9999 8.69667ZM13.9882 12.3983C14.4312 12.3983 14.7973 12.7275 14.8552 13.1545L14.8632 13.2733V18.4288C14.8632 18.912 14.4715 19.3038 13.9882 19.3038C13.5452 19.3038 13.1792 18.9746 13.1212 18.5475L13.1132 18.4288V13.2733C13.1132 12.79 13.505 12.3983 13.9882 12.3983Z" fill="#424242"/>
</svg>
