<svg width="20" height="24" viewBox="0 0 20 24" fill="none" xmlns="http://www.w3.org/2000/svg">
    <path fill-rule="evenodd" clip-rule="evenodd" d="M10.005 0.333344C6.58199 0.333344 3.80707 3.12009 3.80707 6.55771C3.80707 9.99534 6.58199 12.7821 10.005 12.7821C13.428 12.7821 16.203 9.99534 16.203 6.55771C16.203 3.12009 13.428 0.333344 10.005 0.333344ZM10.005 2.02229C12.4992 2.02229 14.5212 4.05287 14.5212 6.55771C14.5212 9.06256 12.4992 11.0931 10.005 11.0931C7.51081 11.0931 5.48885 9.06256 5.48885 6.55771C5.48885 4.05287 7.51081 2.02229 10.005 2.02229ZM7.4684 15.291C6.56106 15.354 5.64392 15.4836 4.73927 15.6774C2.99321 16.0371 1.59633 16.7557 1.00178 17.9499C0.777537 18.4169 0.664793 18.9169 0.666695 19.4232C0.666023 19.9258 0.777854 20.4265 0.994059 20.8845C1.56494 22.0649 2.79911 22.733 4.46562 23.1033L4.76415 23.1656C5.64424 23.3641 6.56165 23.4978 7.48521 23.5606C7.56387 23.5836 7.75134 23.6051 7.95596 23.6155L8.12426 23.6218C8.2108 23.6238 8.30901 23.6243 8.45535 23.6243C9.78282 23.6973 11.159 23.6761 12.5288 23.5595C13.2587 23.5095 13.9936 23.4141 14.7224 23.2742L15.2676 23.161C17.0672 22.806 18.4147 22.1309 19.005 20.8858C19.4427 19.9615 19.4427 18.8888 19.0052 17.9649C18.4164 16.723 17.086 16.0535 15.2539 15.6761C14.5352 15.5226 13.8047 15.4091 13.0691 15.3365L12.5313 15.291C10.8469 15.1425 9.1528 15.1425 7.4684 15.291ZM12.3842 16.9735L12.399 16.9747C13.2432 17.0341 14.0823 17.1526 14.9101 17.3293C16.2709 17.6097 17.1945 18.0744 17.4866 18.6906C17.7066 19.1552 17.7066 19.6951 17.4864 20.1601C17.2134 20.7358 16.384 21.1807 15.1852 21.4525L14.9228 21.5081C14.0787 21.6964 13.2423 21.8178 12.4005 21.8755C11.0943 21.9866 9.79578 22.0067 8.50057 21.9366L8.04137 21.9287C7.91389 21.9222 7.80646 21.9099 7.70689 21.8899C6.91852 21.8304 6.20912 21.7363 5.52032 21.5997L5.10905 21.5127C3.744 21.2451 2.81235 20.7784 2.51029 20.1538C2.40459 19.9298 2.34813 19.677 2.34847 19.4211C2.34752 19.1666 2.40324 18.9195 2.51139 18.6942C2.80509 18.1045 3.7924 17.5966 5.08374 17.3306C5.91753 17.1519 6.75623 17.0334 7.6001 16.9747C9.20204 16.8336 10.7977 16.8336 12.3842 16.9735Z" fill="#2F2F2F" />
</svg>