<svg width="23" height="26" viewBox="0 0 23 26" fill="none" xmlns="http://www.w3.org/2000/svg">
<path d="M8.25608 23.2333V19.6555C8.25606 18.7454 8.96829 18.006 9.85073 17.9999H13.0831C13.9698 17.9999 14.6886 18.7411 14.6886 19.6555V19.6555V23.2444C14.6884 24.0171 15.2864 24.6486 16.0354 24.6667H18.1903C20.3385 24.6667 22.08 22.8708 22.08 20.6555V20.6555V10.4775C22.0685 9.60598 21.6717 8.78758 21.0025 8.25522L13.6326 2.13286C12.3415 1.06684 10.5061 1.06684 9.21503 2.13286L1.87747 8.26633C1.20573 8.79654 0.808273 9.61629 0.8 10.4886V20.6555C0.8 22.8708 2.54146 24.6667 4.68966 24.6667H6.8446C7.61224 24.6667 8.23453 24.0249 8.23453 23.2333V23.2333" stroke="#2F2F2F" stroke-width="1.5" stroke-linecap="round" stroke-linejoin="round"/>
</svg>
